<svg id="Layer_1" data-name="Layer 1" xmlns="http://www.w3.org/2000/svg" viewBox="0 0 16 16"><defs><style>.cls-1{fill:#f0d6b9;}.cls-2{fill:#dc143c;}.cls-3{fill:none;stroke:#1a1a1a;stroke-miterlimit:10;stroke-width:0.5px;}</style></defs><title>logo</title><rect class="cls-1" width="16" height="16"/><path class="cls-2" d="M4.58,11.26,6.15,3.43H8.54a5.17,5.17,0,0,1,1.07.11,2.52,2.52,0,0,1,.87.35,1.79,1.79,0,0,1,.57.65,2,2,0,0,1,.21,1,2.93,2.93,0,0,1-.15,1,2.68,2.68,0,0,1-.43.76,2.46,2.46,0,0,1-.64.56,4.38,4.38,0,0,1-.79.37l1.27,3.1H8.7l-1-2.87H6.8l-.56,2.87ZM7.06,7.08h.72A2.11,2.11,0,0,0,9.13,6.7a1.23,1.23,0,0,0,.48-1A.79.79,0,0,0,9.28,5a1.7,1.7,0,0,0-1-.22H7.52Z"/><circle class="cls-3" cx="8" cy="8" r="6"/></svg>